<svg xmlns="http://www.w3.org/2000/svg" version="1.1" xmlns:xlink="http://www.w3.org/1999/xlink" xmlns:svgjs="http://svgjs.dev/svgjs" width="100" height="400" viewBox="0 0 1500 1500"><rect width="1500" height="1500" fill="#000000"></rect><g transform="matrix(0.6666666666666666,0,0,0.6666666666666666,249.98941132283784,398.61808367071524)"><svg viewBox="0 0 351 247" data-background-color="#000000" preserveAspectRatio="xMidYMid meet" height="1055" width="1500" xmlns="http://www.w3.org/2000/svg" xmlns:xlink="http://www.w3.org/1999/xlink"><g id="tight-bounds" transform="matrix(1,0,0,1,0.003716625683921393,-0.09999999999999432)"><svg viewBox="0 0 350.99256674863216 247.2" height="247.2" width="350.99256674863216"><g><svg viewBox="0 0 397.4975999999999 279.9529563552585" height="247.2" width="350.99256674863216"><g><rect width="397.4975999999999" height="8.574589301271736" x="0" y="153.84983793758943" fill="#48937e" opacity="1" stroke-width="0" stroke="transparent" fill-opacity="1" class="rect-qz-0" data-fill-palette-color="secondary" rx="1%" id="qz-0" data-palette-color="#48937e"></rect></g><g transform="matrix(1,0,0,1,0.9887999999999693,184.87099609035786)"><svg viewBox="0 0 395.52 95.08196026490066" height="95.08196026490066" width="395.52"><g id="textblocktransform"><svg viewBox="0 0 395.52 95.08196026490066" height="95.08196026490066" width="395.52" id="textblock"><g><svg viewBox="0 0 395.52 95.08196026490066" height="95.08196026490066" width="395.52"><g transform="matrix(1,0,0,1,0,0)"><svg width="395.52" viewBox="2.25 -40.8 226.48 54.449999999999996" height="95.08196026490066" data-palette-color="#48937e"><path d="M23.05-14.1L23.05-14.1 7.35-14.1Q6.9-1.35 15-1.35L15-1.35Q18.45-1.35 22.05-4.4L22.05-4.4Q22.8-3.95 23.2-2.85L23.2-2.85Q19.75 1 14.45 1L14.45 1Q2.25 1 2.25-13.35L2.25-13.35Q2.25-20.15 5.85-23.93 9.45-27.7 14.25-27.7L14.25-27.7Q19.5-27.7 21.8-24.05 24.1-20.4 24.1-14.55L24.1-14.55Q23.6-14.15 23.05-14.1ZM14.15-25.7L14.15-25.7Q11.55-25.7 9.73-23 7.9-20.3 7.5-16.1L7.5-16.1 13.7-16.1Q17.4-16.1 19-16.55L19-16.55Q19-20.65 17.75-23.18 16.5-25.7 14.15-25.7ZM64.85-8.7L64.85-17.85Q64.85-24.8 60.4-24.8L60.4-24.8Q56.6-24.8 53.2-19.55L53.2-19.55 53.2-2.55 57.25-1.8Q57.45-1 57.25 0.2L57.25 0.2Q54.1 0.05 50.85 0.05L50.85 0.05Q48.55 0.05 44.35 0.15L44.35 0.15Q44.05-0.8 44.35-1.8L44.35-1.8 48.3-2.35Q48.5-5.1 48.5-8.7L48.5-8.7 48.5-17.85Q48.5-24.8 44.05-24.8L44.05-24.8Q41.8-24.8 40.1-23.43 38.4-22.05 36.6-19.15L36.6-19.15 36.6-2.55 40.65-1.8Q40.85-1 40.65 0.2L40.65 0.2Q37.5 0.05 34.25 0.05L34.25 0.05Q31.95 0.05 27.75 0.15L27.75 0.15Q27.45-0.8 27.75-1.8L27.75-1.8 31.7-2.35Q31.9-5.1 31.9-8.7L31.9-8.7 31.9-22.4Q31.9-23.4 31.75-24.25L31.75-24.25 27.8-24.75Q27.6-25.5 27.8-26.65L27.8-26.65Q31.15-26.9 36.35-27.7L36.35-27.7Q36.8-27.2 36.85-26.7L36.85-26.7Q36.6-25.4 36.6-22.25L36.6-22.25Q40.55-27.7 45.5-27.7L45.5-27.7Q48.1-27.7 50.25-26.38 52.4-25.05 53-22.3L53-22.3Q57-27.7 61.85-27.7L61.85-27.7Q64.9-27.7 67.22-25.9 69.55-24.1 69.55-20.35L69.55-20.35 69.55-2.55 73.6-1.8Q73.8-1 73.6 0.2L73.6 0.2Q70.45 0.05 67.2 0.05L67.2 0.05Q64.9 0.05 60.7 0.15L60.7 0.15Q60.4-0.8 60.7-1.8L60.7-1.8 64.65-2.35Q64.85-5.1 64.85-8.7L64.85-8.7ZM91.2-1.7L91.2-1.7Q94.5-1.7 96.42-4.9 98.34-8.1 98.34-14.55L98.34-14.55Q98.34-19.5 96.52-22.1 94.7-24.7 91.7-24.7L91.7-24.7Q87.3-24.7 84.09-20.45L84.09-20.45 84.09-4.9Q86.9-1.7 91.2-1.7ZM79.34 4.75L79.34-19.55Q79.34-22.9 79.2-24.25L79.2-24.25 75.25-24.75Q75.09-25.55 75.25-26.65L75.25-26.65Q78.75-26.9 83.84-27.7L83.84-27.7Q84.3-27.25 84.34-26.7L84.34-26.7Q84.09-24.95 84.09-23L84.09-23Q88.15-27.7 93.4-27.7L93.4-27.7Q97.8-27.7 100.72-24.05 103.65-20.4 103.65-14.4L103.65-14.4Q103.65-7.45 99.82-3.23 96 1 90.8 1L90.8 1Q87.15 1 84.09-1.35L84.09-1.35 84.09 10.9 89.15 11.65Q89.34 12.45 89.15 13.65L89.15 13.65Q86 13.5 82.2 13.5L82.2 13.5Q79.39 13.5 75.2 13.6L75.2 13.6Q74.89 12.6 75.2 11.65L75.2 11.65 79.14 11.1Q79.34 8.35 79.34 4.75L79.34 4.75ZM115.69-31.7L115.69-31.7 115.69-2.55 119.74-1.8Q119.94-1 119.74 0.2L119.74 0.2Q116.59 0.05 113.29 0.05L113.29 0.05Q110.99 0.05 106.79 0.15L106.79 0.15Q106.49-0.8 106.79-1.8L106.79-1.8 110.74-2.35Q110.94-5.1 110.94-8.7L110.94-8.7 110.94-37.35 106.84-37.85Q106.64-38.6 106.84-39.75L106.84-39.75Q110.29-40 115.44-40.8L115.44-40.8Q115.89-40.3 115.94-39.8L115.94-39.8Q115.69-38.5 115.69-31.7ZM122.94-13.3L122.94-13.3Q122.94-16.3 123.82-18.93 124.69-21.55 126.34-23.5 127.99-25.45 130.31-26.58 132.64-27.7 135.54-27.7L135.54-27.7Q138.39-27.7 140.74-26.58 143.09-25.45 144.77-23.5 146.44-21.55 147.34-18.93 148.24-16.3 148.24-13.3L148.24-13.3Q148.24-10.2 147.31-7.6 146.39-5 144.72-3.08 143.04-1.15 140.69-0.08 138.34 1 135.54 1L135.54 1Q132.59 1 130.27-0.05 127.94-1.1 126.32-3 124.69-4.9 123.82-7.53 122.94-10.15 122.94-13.3ZM130.24-22.5L130.24-22.5Q128.09-19.45 128.09-13.3L128.09-13.3Q128.09-10.25 128.67-7.95 129.24-5.65 130.24-4.13 131.24-2.6 132.59-1.85 133.94-1.1 135.54-1.1L135.54-1.1Q137.09-1.1 138.49-1.85 139.89-2.6 140.89-4.13 141.89-5.65 142.49-7.95 143.09-10.25 143.09-13.3L143.09-13.3Q143.09-16.35 142.49-18.68 141.89-21 140.87-22.53 139.84-24.05 138.47-24.83 137.09-25.6 135.54-25.6L135.54-25.6Q132.44-25.6 130.24-22.5ZM159.94 7.4L159.94 7.4 163.14-0.15 153.44-24.05 149.54-24.85Q149.29-25.85 149.54-26.85L149.54-26.85Q152.29-26.65 156.24-26.65L156.24-26.65Q159.79-26.65 162.99-26.8L162.99-26.8Q163.29-25.8 162.99-24.85L162.99-24.85 158.69-24.15 163.44-12.9Q164.44-10.45 165.54-6.05L165.54-6.05 165.64-6.05Q166.49-9.05 167.99-12.65L167.99-12.65 172.34-24.3 168.44-24.85Q168.24-25.65 168.44-26.85L168.44-26.85Q171.19-26.65 173.79-26.65L173.79-26.65Q175.99-26.65 179.24-26.8L179.24-26.8Q179.54-25.8 179.24-24.85L179.24-24.85 175.29-24.3 162.09 8Q161.04 10.5 159.74 11.75 158.44 13 156.29 13L156.29 13Q154.59 13 153.66 12.58 152.74 12.15 151.79 10.95L151.79 10.95Q152.09 8.2 154.64 6.55L154.64 6.55Q156.69 8.85 158.14 8.85L158.14 8.85Q159.39 8.85 159.94 7.4ZM201.44-14.1L201.44-14.1 185.74-14.1Q185.29-1.35 193.39-1.35L193.39-1.35Q196.84-1.35 200.44-4.4L200.44-4.4Q201.19-3.95 201.59-2.85L201.59-2.85Q198.14 1 192.84 1L192.84 1Q180.64 1 180.64-13.35L180.64-13.35Q180.64-20.15 184.24-23.93 187.84-27.7 192.64-27.7L192.64-27.7Q197.89-27.7 200.19-24.05 202.49-20.4 202.49-14.55L202.49-14.55Q201.99-14.15 201.44-14.1ZM192.54-25.7L192.54-25.7Q189.94-25.7 188.11-23 186.29-20.3 185.89-16.1L185.89-16.1 192.09-16.1Q195.79-16.1 197.39-16.55L197.39-16.55Q197.39-20.65 196.14-23.18 194.89-25.7 192.54-25.7ZM227.68-14.1L227.68-14.1 211.98-14.1Q211.53-1.35 219.63-1.35L219.63-1.35Q223.08-1.35 226.68-4.4L226.68-4.4Q227.43-3.95 227.83-2.85L227.83-2.85Q224.38 1 219.08 1L219.08 1Q206.88 1 206.88-13.35L206.88-13.35Q206.88-20.15 210.48-23.93 214.08-27.7 218.88-27.7L218.88-27.7Q224.13-27.7 226.43-24.05 228.73-20.4 228.73-14.55L228.73-14.55Q228.23-14.15 227.68-14.1ZM218.78-25.7L218.78-25.7Q216.18-25.7 214.36-23 212.53-20.3 212.13-16.1L212.13-16.1 218.33-16.1Q222.03-16.1 223.63-16.55L223.63-16.55Q223.63-20.65 222.38-23.18 221.13-25.7 218.78-25.7Z" opacity="1" transform="matrix(1,0,0,1,0,0)" fill="#48937e" class="wordmark-text-0" data-fill-palette-color="primary" id="text-0"></path></svg></g></svg></g></svg></g></svg></g><g transform="matrix(1,0,0,1,141.80991629017907,0)"><svg viewBox="0 0 113.87776741964177 131.40326908609273" height="131.40326908609273" width="113.87776741964177"><g><svg xmlns="http://www.w3.org/2000/svg" xmlns:xlink="http://www.w3.org/1999/xlink" version="1.1" x="8" y="0" viewBox="18.06053001025085 5.197000218006815 66.33846998974914 89.06099978199316" enable-background="new 0 0 100 100" xml:space="preserve" height="131.40326908609273" width="97.87776741964177" class="icon-icon-0" data-fill-palette-color="accent" id="icon-0"><g fill="#f231aa" data-fill-palette-color="accent"><circle cx="45.251" cy="17.57" r="12" fill="#f231aa" data-fill-palette-color="accent"></circle><path d="M70.62 63.817l-3.23-22.158c-0.428-3.426-3.339-5.998-6.791-6.002L48.05 35.642v2.353c0 0.536-0.328 0.996-0.793 1.191l3.747 27.468-5.861 8.161-5.645-8.161 3.525-27.529c-0.402-0.218-0.679-0.64-0.679-1.13v-2.359l-13.627-0.015c-3.546-0.004-6.508 2.698-6.83 6.228l-3.811 32.685c-0.202 2.288 1.6 4.257 3.896 4.257h32.099C55.063 70.46 62.063 63.986 70.62 63.817z" fill="#f231aa" data-fill-palette-color="accent"></path><path d="M70.96 67.38c-7.422 0-13.439 6.017-13.439 13.439s6.017 13.439 13.439 13.439 13.439-6.017 13.439-13.439S78.382 67.38 70.96 67.38zM72.367 87.264c0 0.77-0.627 1.397-1.396 1.397h-0.02c-0.77 0-1.396-0.627-1.396-1.397v-6.171l-4.879-4.878c-0.264-0.264-0.409-0.615-0.409-0.988 0-0.373 0.145-0.724 0.409-0.988 0.278-0.278 0.628-0.423 1.002-0.423 0.373 0 0.724 0.145 0.987 0.409l5.703 5.696V87.264z" fill="#f231aa" data-fill-palette-color="accent"></path></g></svg></g></svg></g><g><rect width="51.51781941550645" height="8.574589301271736" y="121.82867978482099" x="255.68768370982085" fill="#48937e" data-fill-palette-color="secondary"></rect><rect width="51.51781941550645" height="8.574589301271736" y="121.82867978482099" x="90.29209687467262" fill="#48937e" data-fill-palette-color="secondary"></rect></g></svg></g><defs></defs></svg><rect width="350.99256674863216" height="247.2" fill="none" stroke="none" visibility="hidden"></rect></g></svg></g></svg>